<svg data-v-423bf9ae="" xmlns="http://www.w3.org/2000/svg" viewBox="0 0 450.54979816239984 102" class="iconAbove"><!----><!----><!----><g data-v-423bf9ae="" id="2162f361-3cab-4cf2-b3b8-043de65368c7" fill="#022239" transform="matrix(5.535055160522461,0,0,5.535055160522461,100.16606207191944122,2.5645751953125)"><path d="M7.75 13.18L6.69 10.51L3.08 10.51L2.08 13.18L3.23 13.54L3.23 13.82L-0.03 13.82L-0.03 13.54L1.16 13.05L4.73 3.74L5.36 3.74L9.02 13.05L10.14 13.54L10.14 13.82L6.64 13.82L6.64 13.54L7.75 13.18ZM4.89 5.83L4.83 5.83L3.36 9.78L6.41 9.78L4.89 5.83ZM13.29 9.21L13.29 13.05L14.96 13.54L14.96 13.82L10.70 13.82L10.70 13.54L11.96 13.05L11.96 4.51L10.70 4.02L10.70 3.74L15.83 3.74L17.14 3.56L17.34 3.74L17.34 6.50L17.05 6.50L16.18 4.47L13.29 4.47L13.29 8.46L16.13 8.32L16.39 8.42L16.26 9.33L13.29 9.21ZM22.67 4.02L21.48 4.51L21.48 13.05L22.74 13.54L22.74 13.82L18.96 13.82L18.96 13.54L20.15 13.05L20.15 4.51L18.89 4.02L18.89 3.74L22.67 3.74L22.67 4.02ZM31.48 13.82L24.27 13.82L24.27 13.54L25.53 13.05L25.53 4.51L24.27 4.02L24.27 3.74L29.83 3.74L31.13 3.56L31.34 3.74L31.34 6.49L31.06 6.49L30.19 4.47L26.87 4.47L26.87 8.32L29.70 8.18L29.97 8.28L29.83 9.19L26.87 9.08L26.87 13.10L30.33 13.10L31.20 11.08L31.48 11.08L31.48 13.82ZM37.22 7.36L34.98 7.77L34.98 11.58Q34.98 12.04 35.05 12.36Q35.12 12.67 35.26 12.83Q35.40 12.98 35.56 13.04Q35.72 13.10 35.94 13.10L35.94 13.10Q36.35 13.10 36.62 13.03Q36.90 12.95 37.22 12.76L37.22 12.76L37.43 13.19Q36.47 13.99 35.32 13.99L35.32 13.99Q34.65 13.99 34.19 13.46Q33.72 12.93 33.72 11.98L33.72 11.98L33.72 7.77L32.45 7.42L32.45 7.14L33.78 6.86L34.28 4.98L34.98 4.98L34.98 6.86L36.98 6.86L37.22 6.95L37.22 7.36ZM40.89 13.05L42.08 13.54L42.08 13.82L38.37 13.82L38.37 13.54L39.63 13.05L39.63 4.42L38.37 3.92L38.37 3.64L40.76 3.15L40.89 3.29L40.89 7.62Q41.37 7.17 42.02 6.91Q42.67 6.65 43.30 6.65L43.30 6.65Q44.22 6.65 44.83 7.21Q45.43 7.77 45.43 8.88L45.43 8.88L45.43 13.05L46.69 13.54L46.69 13.82L42.98 13.82L42.98 13.54L44.17 13.05L44.17 9.30Q44.17 8.31 43.82 7.93Q43.47 7.55 42.62 7.55L42.62 7.55Q41.60 7.55 40.89 8.16L40.89 8.16L40.89 13.05ZM53.57 10.17L53.37 10.36L48.95 10.36Q48.95 11.13 49.16 11.70Q49.38 12.26 49.74 12.58Q50.10 12.91 50.53 13.06Q50.97 13.21 51.48 13.21L51.48 13.21Q52.19 13.21 53.01 12.73L53.01 12.73L53.22 13.14Q52.64 13.64 52.07 13.82Q51.50 13.99 50.76 13.99L50.76 13.99Q50.13 13.99 49.54 13.72Q48.95 13.45 48.51 12.98Q48.06 12.50 47.80 11.81Q47.53 11.12 47.53 10.32L47.53 10.32Q47.53 9.56 47.73 8.94Q47.92 8.31 48.24 7.90Q48.56 7.48 48.99 7.19Q49.42 6.90 49.86 6.78Q50.31 6.65 50.78 6.65L50.78 6.65Q51.36 6.65 51.85 6.87Q52.35 7.08 52.74 7.50Q53.12 7.92 53.34 8.61Q53.57 9.29 53.57 10.17L53.57 10.17ZM50.80 7.31L50.80 7.31Q50.02 7.31 49.55 7.94Q49.08 8.56 48.97 9.64L48.97 9.64L52.23 9.64Q52.23 8.54 51.86 7.93Q51.50 7.31 50.80 7.31ZM57.13 13.05L58.75 13.54L58.75 13.82L54.62 13.82L54.62 13.54L55.88 13.05L55.88 7.92L54.62 7.42L54.62 7.14L57.00 6.65L57.13 6.79L57.13 7.64Q58.17 6.65 59.87 6.65L59.87 6.65L59.87 8.17L59.59 8.26L58.59 7.72Q58.28 7.72 57.89 7.85Q57.49 7.98 57.13 8.24L57.13 8.24L57.13 13.05Z"></path></g><defs data-v-423bf9ae=""><linearGradient data-v-423bf9ae="" gradientTransform="rotate(25)" id="907fd1f2-a392-44e1-8697-46374b5a498e" x1="0%" y1="0%" x2="100%" y2="0%"><stop data-v-423bf9ae="" offset="0%" style="stop-color: rgb(0, 10, 104); stop-opacity: 1;"></stop><stop data-v-423bf9ae="" offset="100%" style="stop-color: rgb(0, 196, 238); stop-opacity: 1;"></stop></linearGradient></defs><g data-v-423bf9ae="" id="6783d4a7-eaac-4165-b743-0a8911b002f0" transform="matrix(1.2569833993911743,0,0,1.2569833993911743,-16.68240356445312,-15.06033706665039)" stroke="none" fill="url(#907fd1f2-a392-44e1-8697-46374b5a498e)"><path d="M82.4 27.1L65.2 16c-.2-.2-.5-.2-.8-.2h-27c-.3 0-.6.1-.8.2L19.3 27.1c-.4.3-.7.7-.7 1.2v46.5c0 .5.3 1 .7 1.2l17.2 11.1s.1 0 .1.1c0 0 .1 0 .1.1.2.1.3.1.5.1h27c.2 0 .3 0 .5-.1.1 0 .1 0 .1-.1 0 0 .1 0 .1-.1L82.4 76c.1-.1.3-.2.4-.4 0 0 0-.1.1-.1.1-.1.2-.3.2-.5v-.1-46.6c0-.5-.3-.9-.7-1.2zM35.9 83.2L21.6 74V46.6l14.3 9.2v27.4zm27 1.2H38.8V56.5h24.1v27.9zm17.2-41.3L63.9 53.5H37.8L21.6 43.1v-14l16.2-10.4h26.1l16.2 10.4v14z"></path></g><!----></svg>